# xmcd CD database file generated by LOLA_Freedb v0.9beta0
# 
# Track frame offsets:
#      150
#      9549
#      23517
#      35532
#      46791
#      51539
#      60650
# 
# Disc length: 981 seconds
# 
# Revision: 0 
# Processed by: cddbd v1.5.2PL0 Copyright (c) Steve Scherf et al.
# Submitted via: LOLA_Freedb v0.9beta0
# 
DISCID=5103d307
DTITLE=Div - The Drifters Caravan S2
DYEAR=1900
DGENRE=
TTITLE0=Orange Blossom Special
TTITLE1=Wabnash Cannonball
TTITLE2=Red River Valley
TTITLE3=Home on the range
TTITLE4=Boil the cabbage down
TTITLE5=Wreck of the old 97
TTITLE6=Streets of Laredo
EXTD=
EXTT0=
EXTT1=
EXTT2=
EXTT3=
EXTT4=
EXTT5=
EXTT6=
PLAYORDER=
